<svg viewBox="0 0 100 110" xmlns="http://www.w3.org/2000/svg" role="img" aria-label="自分流ライブ職人"><circle cx="50" cy="24" r="17" fill="#FFD2B8" stroke="#2E2A33" stroke-width="3"/><path d="M33 23 Q50 3 67 23 Q63 12 50 10 Q37 12 33 23Z" fill="#2E2A33"/><circle cx="41" cy="55" r="3" fill="#2E2A33"/><circle cx="59" cy="55" r="3" fill="#2E2A33"/><path d="M43 65 Q50 72 57 65" fill="none" stroke="#2E2A33" stroke-width="3" stroke-linecap="round"/><path d="M29 76 Q50 68 71 76 L68 91 Q50 98 32 91Z" fill="#31B6B0" stroke="#2E2A33" stroke-width="3"/><path d="M43 83 L31 101 M57 83 L69 101" stroke="#2E2A33" stroke-width="6" stroke-linecap="round"/><path d="M30 61 Q15 55 11 42 M70 61 Q85 55 89 42" fill="none" stroke="#2E2A33" stroke-width="6" stroke-linecap="round"/><path d="M28 32 Q50 20 72 32 L68 39 Q50 31 32 39Z" fill="#31B6B0" stroke="#2E2A33" stroke-width="3"/></svg>