<svg viewBox="0 0 100 110" xmlns="http://www.w3.org/2000/svg" role="img" aria-label="俺を見ろ"><path d="M16 73 L10 66 M84 73 L90 66" stroke="#E8B94A" stroke-width="4" stroke-linecap="round"/><circle cx="50" cy="24" r="17" fill="#FFD2B8" stroke="#2E2A33" stroke-width="3"/><path d="M33 23 Q50 3 67 23 Q63 12 50 10 Q37 12 33 23Z" fill="#2E2A33"/><path d="M36 55 C39 51 43 51 46 55 C43 59 39 59 36 55 M54 55 C57 51 61 51 64 55 C61 59 57 59 54 55" fill="#FF6FAE"/><path d="M43 65 Q50 72 57 65" fill="none" stroke="#2E2A33" stroke-width="3" stroke-linecap="round"/><path d="M29 76 Q50 68 71 76 L68 91 Q50 98 32 91Z" fill="#E8B94A" stroke="#2E2A33" stroke-width="3"/><path d="M43 83 L34 99 M57 83 L66 99" stroke="#2E2A33" stroke-width="6" stroke-linecap="round"/><path d="M30 61 Q15 55 11 42 M70 61 Q85 55 89 42" fill="none" stroke="#2E2A33" stroke-width="6" stroke-linecap="round"/><path d="M73 43 L95 30 M78 52 L98 50" stroke="#E8B94A" stroke-width="5" stroke-linecap="round"/><path d="M80 28 L80 57" stroke="#2E2A33" stroke-width="5" stroke-linecap="round"/></svg>